/* XPM */
static char *ChatGPT_Image_Apr_20__2025__04_00_42_PM_1_1745161302[] = {
/* columns rows colors chars-per-pixel */
"64 64 192 2 ",
"   c #BA867E",
".  c #B3837F",
"X  c #C0867C",
"o  c #3F6599",
"O  c #1E65AF",
"+  c #1C6CB4",
"@  c #1666BC",
"#  c #1369BF",
"$  c #1D6CBC",
"%  c #1C72BC",
"&  c #1571BC",
"*  c #2D6CAA",
"=  c #3F6EA5",
"-  c #346DAC",
";  c #3B6DAB",
":  c #336DA6",
">  c #3472AF",
",  c #3C74AD",
"<  c #2567B5",
"1  c #256AB5",
"2  c #2C6DB1",
"3  c #2166B9",
"4  c #266EB9",
"5  c #356DB1",
"6  c #2672B6",
"7  c #2D73B5",
"8  c #2474BC",
"9  c #2A76BD",
"0  c #2679BE",
"q  c #2A79BD",
"w  c #3474B3",
"e  c #3B76B2",
"r  c #3B7AB3",
"t  c #387BB8",
"y  c #3377B8",
"u  c #5F6E8F",
"i  c #426699",
"p  c #486E9E",
"a  c #456C9C",
"s  c #516E99",
"d  c #546B95",
"f  c #4D719F",
"g  c #5D7195",
"h  c #56739D",
"j  c #5D759C",
"k  c #5D789F",
"l  c #676F8F",
"z  c #6C6E8A",
"x  c #716E87",
"c  c #7A7186",
"v  c #76728D",
"b  c #7B758C",
"n  c #7C788F",
"m  c #697697",
"M  c #6E7897",
"N  c #64769B",
"B  c #6D7699",
"V  c #65799E",
"C  c #6C799A",
"Z  c #617496",
"A  c #717793",
"S  c #7A7790",
"D  c #747995",
"F  c #7C7B93",
"G  c #707799",
"H  c #747C99",
"J  c #406CA1",
"K  c #496FA5",
"L  c #406DAB",
"P  c #536FA2",
"I  c #4071A7",
"U  c #4C73A5",
"Y  c #4473AB",
"T  c #4975AA",
"R  c #4479AE",
"E  c #4C78AA",
"W  c #5374A3",
"Q  c #5C75A1",
"!  c #5478A4",
"~  c #5D79A1",
"^  c #5278A8",
"/  c #6179A1",
"(  c #0763C6",
")  c #0E6BC5",
"_  c #0564C9",
"`  c #046CCC",
"'  c #096CCC",
"]  c #0B63C0",
"[  c #1267C2",
"{  c #136EC4",
"}  c #196CC0",
"|  c #0F73C4",
" . c #0770CF",
".. c #0C74CC",
"X. c #0C79CE",
"o. c #1475C5",
"O. c #1B75C3",
"+. c #1778C6",
"@. c #1B79C6",
"#. c #1274C9",
"$. c #1A77C8",
"%. c #137ACC",
"&. c #1A7AC9",
"*. c #026FD0",
"=. c #0574D3",
"-. c #0A75D3",
";. c #0579D5",
":. c #0C7CD4",
">. c #057DDA",
",. c #0B7ED9",
"<. c #117DD2",
"1. c #2176C2",
"2. c #227AC3",
"3. c #287AC1",
"4. c #227CC8",
"5. c #837586",
"6. c #8B7684",
"7. c #8C7987",
"8. c #80778C",
"9. c #857B8E",
"0. c #8C7D8D",
"q. c #947C86",
"w. c #9C7E85",
"e. c #937E8B",
"r. c #9A7F89",
"t. c #847C91",
"y. c #8B7F90",
"u. c #A37F82",
"i. c #1A80CD",
"p. c #0E80D6",
"a. c #0582DD",
"s. c #0B84DB",
"d. c #0E8ADE",
"f. c #1382D5",
"g. c #1886D6",
"h. c #1185DA",
"j. c #148BDD",
"k. c #188FDE",
"l. c #1690DF",
"z. c #1B93DF",
"x. c #2A82C4",
"c. c #2585C8",
"v. c #0583E1",
"b. c #0C85E1",
"n. c #0D8BE2",
"m. c #0588E4",
"M. c #118DE2",
"N. c #0C90E3",
"B. c #1493E3",
"V. c #1A96E1",
"C. c #1699E6",
"Z. c #1C9BE4",
"A. c #1497E8",
"S. c #149BEA",
"D. c #199EE8",
"F. c #209DE3",
"G. c #1EA1E6",
"H. c #16A3EE",
"J. c #1CA5EB",
"K. c #1CABEE",
"L. c #1AACF1",
"P. c #1CB2F2",
"I. c #21A3E6",
"U. c #21A6E9",
"Y. c #23A9EA",
"T. c #29B2ED",
"R. c #20B6F3",
"E. c #23BBF4",
"W. c #2DB8F1",
"Q. c #31BDF2",
"!. c #26C1F6",
"~. c #29C5F7",
"^. c #2CC8F7",
"/. c #2DCCF8",
"(. c #3BCBF7",
"). c #30CFF9",
"_. c #33C1F3",
"`. c #35D5FB",
"'. c #37D8FC",
"]. c #39D9FC",
"[. c #45E2FB",
"{. c #8F808E",
"}. c #9E8087",
"|. c #95808C",
" X c #9C828A",
".X c #A48285",
"XX c #AC8585",
"oX c #AF8887",
"OX c #A68589",
"+X c #A98688",
"@X c #B28683",
"#X c #B58884",
/* pixels */
"OXOXOXOXOXOXOX+XOXOXOXOXOXOXOXOXOXOXOXOX+X+XOXOXOXOXOXOXOXOXOXOXOX+XOXOXOXOXOXOXOXOXOXOXOXOXOXOXOXOXOX+XOXOXOXOXOXOX+XOX+XOXOXOX",
"OXOXOXOXOXOXOX+XOXOXOXOXOXOXOXOXOXOXOXOXOXOXOXOXOXOXOXOXOXOXOXOXOXOXOXOXOXOXOXOXOXOXOXOX+XOXOXOXOXOXOXOXOXOXOXOXOXOXOXOXOX+XOXOX",
"OXOXOXOXOXOXOXOXOXOXOXOXOXOX+XOXOXOXOXOXOXOXOXOXOXOXOXOXOXOXOX.XOXOXOXOXOXOXOXOXOXOXOXOXOXOXOXOXOXOXOXOXOXOX+XOXOXOXOXOXOXOXOXOX",
"OXOXOXOXOXOXOXOXOXOX+XOXOXOXOXOXOXOXOXOXOXOXOXOXOXOXOXOXOXOX+X.XOXOXOXOXOXOXOXOXOX+XOXOXOXOXOXOXOXOXOXOXOXOXOXOXOXOXOXOXOXOXOXOX",
"OXOXOXOXOX+XOXOXOXOXOXOXOXOX+XOXOXOXOXOXOXOXOXOX+X+XOXOXOXn |.+XOXOXOXOXOXOXOXOXOXOXOXOXOXOXOXOXOXOXOXOXOXOXOXOXOXOXOXOX+XOXOXOX",
"OXOXOXOXOX+XOXOXOXOX+XOXOXOXOXOXOXOXOXOXOXOXOXOXOX.XOXOX#Xh j oXOXOXOX.XOXOXOXOXOXOXOXOXOXOXOXOXOXOXOXOX+XOXOXOXOX+X+XOXOXOXOXOX",
"OXOXOXOXOXOXOX+XOXOXOXOXOXOXOXOXOXOXOXOX+XOXOXOXOXOXOXOX. & k XX X+X}.|.+XOXOX+XOX+XOXOXOXOXOXOXOXOXOXOX+XOXOXOXOXOXOXOXOXOXOXOX",
"OXOXOXOXOXOXOXOXOXOX+XOXOXOXOXOXOX+XOXOXOXOXOXOXOXOXOX.X6 %.|..  XoXs {.oXOXOXOXOXOX+XOXOXOXOXOXOXOXOXOXOXOXOXOXOXOXOXOXOXOXOXOX",
"OXOXOXOXOXOXOXOXOXOXOXOXOXOXOXOX+X+XOXOXOXOXOXOXOXOXoXh a.> XXOX+X}.+ {.+XOXOXOXOXOXOXOXOXOXOXOXOX+XOXOXOXOXOXOXOXOXOXOXOXOXOXOX",
"OXOXOXOXOXOXOXOXOXOXOXOXOXOXOXOXOXOXOXOXOXOXOXOXOXOX}.6 s.7 .XOXOXoXf g oXOXOX XOXOXOXOXOXOXOXOXOXOXOXOXOXOXOXOXOXOXOXOX+XOXOXOX",
"OXOXOXOXOXOXOXOXOXOXOXOXOXOXOXOXOXOXOXOXOXOXOXOXOXOX. + l.i.g oXOXOXOXb OXoXb n oXOXOXOXOXOXOXOXOXOXOXOXOXOXOXOXOXOXOXOXOXOXOXOX",
"OXOXOXOXOXOXOXOXOXOXOXOXOXOXOXOXOXOXOXOXOXOXOX X XOXoXs d.G.i.I |.oX}.+X X. h j oXOXOXOXOXOXOXOXOXOXOXOXOXOXOX+XOXOXOXOXOX+XOXOX",
"OXOXOXOX+X+X+XOXOXOXOXOXOXOXOXOXOXOXOXOXOXOXOX{.u oXOX}.> z.U.l.% {. X XOXoXF & {.+XOXOXOXOXOXOXOXOXOXOXOXOXOXOXOXOX+XOXOXOXOXOX",
"OXOXOXOXOXOXOXOXOXOXOXOXOX+XOXOXOXOXOXOXOX}.+X{.: +XOXXXq.+.Z.Y.d.6 . OX XOX. % R . OXOXOX|. XOX+XOXOXOXOXOXOXOXOXOXOXOXOXOXOXOX",
"OXOXOXOXOXOXOXOXOXOXOXOXOXOXOXOXOXOXOXOXOXOX. > , oX}.OXXX> l.Y.G.X.b oX+XOX.X% k oX XOX Xs OXOXOX+XOXOXOXOXOXOXOXOXOXOXOX+XOXOX",
"OXOXOX+XOXOXOX+XOXOX+XOXOXOXOXOXOX}..XOXOXoXA & {.oXOX{.XX> d.T.I.i.8.oX{.oX{.o .  XOX. V , . OXOXOXOXOXOXOXOXOXOXOXOXOXOXOXOXOX",
"OXOXOXOXOXOX+XOXOXOXOXOXOXOXOXOXOX+X XOXOX#Xs g oXXXg {.}.o.z._.G.% }.{.g #X{. XoX}.OX. y > . OXOXOXOXOXOXOXOXOXOXOXOXOXOXOXOXOX",
"OXOXOXOXOXOXOXOXOXXXOXOXOXOXOXOX+X9.{.+X X+Xn  XXX! | n , s.I.T.N., XX|.* F . OX XOXOX}.0 %.5.oXOXOXOXOXOXOXOXOXOXOXOXOXOXOX+XOX",
"OXOX+XOXOXOXOXOXOXOXOXOXOXOXOXXX{.6  XOXOXOXOXoXk p.g.X.p.z.Y.I.d., . oXF % h .XOX+X|.+X> s.6 |.+XOXOXOXOXOXOXOXOXOXOXOXOXOXOXOX",
"OXOXOXOXOXOXOXOXOXOXOXOXOXOXOXXXY % .  XOX.XXX|.@.z.j.g.z.Y.Y.J.f.p.U {.  m a.> }.OX}.oXA f.d.6 {.+XOXOXOXOXOXOX+XOX+XOXOXOXOXOX",
"OXOXOXOXOXOXOXOXOXOXOXOXOXOXOXXXw p.g . OX XXXm d.U.f.z.Y.Y.W.Q.Y.j.p.X.E j j.p.F oXOX}.XX, z.:./ oXOXOXOXOXOXOXOXOXOXOXOXOXOXOX",
"OXOXOXOXOX+XOX+XOXOXOXOXOXOXOXXXh s.+.{.oXF }.k j.Y.z.Z.I.G.G.T.(._.Y.z.s.X.z.p.F oX XOXXXk l.p.H oXOXOXOXOXOXOXOXOX+XOXOXOXOX+X",
"OXOXOXOXOXOXOXOXOXOXOXOXOXOXOX+X{.i.s.j #X XoXM :.z.Z.g.j.s.s.h.z.Y.Y.Y.F.f.f.d.E q.! OX.Xt s.0 OX+XOXOXOXOXOXOXOXOXOXOXOXOXOXOX",
"+XOXOXOXOXOXOXOXOXOXOXOXOXOXOXOX. i.N.k oX X. ! a.,.:.;.#.8 9 } & ` ;.j.I.G.g.X.X.c.+.|.|.%.:.D oXOXOXOXOXOXOXOXOXOXOXOXOXOXOXOX",
"OXOXOXOXOXOXOXOXOXOXOXOXOX+XOX@Xv l.i.{.+XXX/ X.q ^ N D e.OX@X.X|.D U $  .l.I.z.%.:.p.C XXO.+.w.+XOXOXOXOXOXOXOXOXOXOXOXOXOXOXOX",
"OXOXOXOXOX+XOXOXOXOXOX+X X0.+Xr.2.s.Z . +X9.7 F .XOXXXOXt.N N C 9..X#X}.j # s.Y.I.#...&.r.t...F oX X/ OXOXOXOXOX+XOXOXOXOXOXOXOX",
"+XOXOXOXOXOXOX+XOXOXOXOXOX XXXe p.F .  XOX|.OXXXOX@X0.3 ' ;.>.;.:.O.T |.#X0.2 ;.J.U.#...2.w.F : +Xe./ oXOXOXOXOXOXOXOXOXOXOXOXOX",
"OXOXOXOXOXOXOX+XOXOXOXOXOX+X.X2 {.oX XOX+X.XC  X XQ 6 ' :.h.h.j.j.l.d.#.C @XOXL :.U.V.) s.0 XXA t.+X XOXOXOXOXOXOXOXOXOXOXOXOXOX",
"OXOXOXOXOXOXOXOXOXOXOXOXOXOX XS .  X+X.X|.: F 0.$ =.s.V.J.Y.Y.U.J.Z.U.C.;.Q XXOX5 n.Y.f.#.s./ XX XOXOX+XOXOXOXOXOXOX+X+XOXOXOXOX",
"OXOX+XOXOXOXOX+XOXOXOXOXOXOXOX+XOX XH .Xf {.0.| s.V.U.Y.Y.Y.G.Z.Z.U.J.Y.Z.>.C XXe.{ D.Z.:.s.9 .X+XOXOXN {.+XOXOXOXOXOXOXOXOXOXOX",
"OXOXOXOXOXOXOXOXOXOXOXOXOX.XOXOXoXf H +X X|.#.s.V.U.J.M.h.,.,.,.:.-.h.Z.U.B.$.0.y.Q s.U.h.f.<.9.+XXXV K oXOXOXOXOXOX+XOXOXOXOXOX",
"OXOXOXOXOXOXOXOXOXOXOXXXA e.OXXX{.: +X+X|.+.s.G.J.k.<._ _ _ ( ( ' ' ( -.M.F.>.! F C O.D.M.g.,.C XX.X8 C oXOXOXOXOXOXOXOXOXOXOXOX",
"OXXXOXOXOXOXOXOXOXOXOX{.2 .XOXXXt.F #Xr.1.s.V.D.,.' _ } 5 [  .-.' ( _ _ ' M.b.4.t.Q L N.V.B.s.^ @Xq.+.R .  XOXOXOXOXOXOXOX+X.XOX",
"OXOXOXOXOXOXOXOXOXOXXX~ 0 XXOXOXOXOXr.Y s.Z.F.h._ @ B / 4.B.A.n.n.s.-._ _ -.h.>./ t.Q >.M.F.s.R OXw.2.:.D oXOXOXOXOXOXOXOXOXOXOX",
"OXOXOXOXOXOXOXOXOXOXXX{.o.D XXOXXXW ; &.V.U.M.' L u./ b.H.A.n.n.n.n.n.-._ ' ,.n.R u.B =.g.F.b.Y 9.+X~ s.@.}.OXOXOXOXOX.XOX.XOXOX",
"OXOXOXXXOXOXOXOXOXOXOXoXk | 0.oXy.) ) j.U.D.,.P #XG >.Y.M.M.S.H.H.A.H.M.' _ h.M.1.u.D =.M.I.b.E W  Xe.+.p.M XXOXOXOXOX+XOX+XOXOX",
"OXOXOXOXOXOXOXOXOXOXOX+X|.X.C   T =...Z.Y.b.9 u.u.$.A.M.M.L.E.).~.P.P.H.-._ ,.A.$..XB =.V.I.h., 7  X0.i.s.N oXOXOX.XOXOXOX+XOXOX",
"OX.XOXOXOXOXOXOX XOXOXoXV X.0..X2.-.<.J.F.-.F @XG b.B.n.H.!.].].].~.P.L.,._ M.A.O..X/ =.Z.J.h.{ 2.u.R C.:.n OXOXOX+XOXOXOXOXOXOX",
"OXOXOXOXOXOXOXOXOXOXOXXX8 V #Xt.<.<.h.I.B.3.t.u.Y b.b.B.R.'.'.[.'.).E.L.,.' M.M.9 @XY a.I.Z.<.>.t A h.s.E XXOXOXOXOXOXOXOXOXOX+X",
"OXOXOXOXOXOXOXOXOXOXOXOXp |.@XF ,.h.h.U.n.L / u.3.b.M.A.E.).'.[.).'._.A.-.-.M.,.^ u.8 n.Y.V.f.a.^ E ;.k XXOXOXOXOXOXOXOXOXOXOXOX",
"OXOXOXOX+XOXOXOXOXOXOXOX|.|.@XF :.j.g.J.d.Y N u.} A.A.n.R.E.`.'.].).K.n.-.b.M.<.e.t.-.F.J.h.j.s.M ! V . OXOXOXOXOX+XOXOXOX.  XOX",
"OXOXOXOX+X.XOXOXOXOXOXOXOXOX+X0.%.z.B.G.d.L Q .X1.A.F.b.K.P.R.E.E.H.n.,.n.V.>.^ @X5 n.Y.Z.j.Z.&.{.{..  XOXOXOXOXOXOXOXOXOXOXOXOX",
"OXOXOXOXOX.XOXOXOXOXOXOX+XOXOX.X9 j.V.V.d.T Q XX5 N.Y.n.n.H.P.L.H.H.D.D.J.m.y @XQ >.Z.U.D.U.n.T . OX. {.OXOXOXOXOXOXOXOXOXOXOXOX",
"OXOXOXOXOX+XOXOXOXOXOXOX|.XXOXXXC a.G.G.n.Y B XXY ,.U.A.,.-.A.J.K.K.H.S.>.e u./ >.h.A.U.Y.V.&.e.. {.!  XOXOXOXOXOXOXOXOXOXOXOXOX",
"OXOXOXOXOXOXOXOXOXOXOXOXF h |.XXOXw B.Y.S.9 0.XXN *.V.U.M.' ( <.,.,.,.1.G u.T -.-.M.U.U.V.>.N XXOX, H . OXOXOXOXOXOXOXOXOXOXOXOX",
"OXOXOXOXOXOXOXOXOXOXOXOX@Xj 6  XXXw.@.J.J.:.F XXe.@ ,.Z.J.j.-.< G y.e.@X#Xy.< ( <.I.I.V.;.e XX@X{.+.|.OXOXOXOXOXOXOXOXOXOX+XOXOX",
"OXOXOXOX.X+XOXOXOXOXOXOXOX.Xo.V XXXXe n.I.B.8 w.@Xm ` h.Z.Y.Z.,.} L T L 5 } -.M.Y.U.B.=.4 u.r.F 2.c..  X XOXOXOXOXOXOXOX. OXOXOX",
"OXOXOXOXOXOXOX+XOXOXOXOX+Xw.O.e XXXXC :.k.J.s., OXOX^ ;.s.Z.J.U.A.b.>.>.,.M.Z.U.F.h.*.< r./ %.,.a.R .  XOX X. OXOXOXOXOXOXOXOXOX",
"+XOXOXOXOXOXOXOXOXOXOXOX+X X0 p.j XXXXw d.G.G.;.T .XXXN -.,.h.k.k.k.h.j.V.Z.C.p. .& f }.V a.d.p.r |.OX}.OXOXOXOXOXOXOXOXOXOXOXOX",
"OXOXOX+XOXOXOXOXOX+XOXOXOXoXh a.j.y 0.0.#.C.Y.Z.>.w e.#Xt.w ,.>.s.,.<.<.<. .) 1 h |.oX}.0 C.r n . . OXOXOXOXOXOXOXOXOXOXOXOXOXOX",
"OXOXOXOXOXOXOXOXOXOXOXOXOXOXOXE i.a.% XX9.+.N.G.G.b.O.B @XXXD E 1.%.;.' ] P 0.OX@X+X X. x.x.. +X{.|.OXOXOXOXOXOXOXOXOX XOXOXOXOX",
"OXOXOXOXOXOXOXOXOXOXOXOXOXOXOXXXq.R :.0.@X{., :.B.I.Z.:.e 0..X.X.Xy.F H t.OX@XXX|.k {.. @.q }.OX{. XOXOXOXOXOXOXOXOXOX. OXOXOXOX",
"OXOXOXOXOXOXOXOXOXOXOXOXOXOXOXOX+X}.+.e XX+XXXF e p.S.U.N.+.m XX.XXXXXXX@X X! y % C XX, a., .XOXOXOXOXOXOXOX XOXOXOXOXOXOXOXOXOX",
"OXOXOXOXOXOXOXOXOXOXOXOXOXOXOXOXOXOXe.> = 9.OXXXXX9.w l.Y.G.s.Q XXN e.OX{.% a.:.F XXj W F }.+X}.}.OXOXOXOXOX. OXOXOXOXOXOXOXOXOX",
"OXOXOXOX+XOXOXOXOXOXOXOXOXOXOXOXOXOXXXXX|.{. XOX XOX. , M.Y.U.p.S , ^ X T d.l.y XX XOX. oX+XOXOXOXOXOXOXOXOXOXOXOXOXOXOXOXOXOX+X",
"OXOXOXOXOXOXOXOXOXOX.XOXOXOXOXOXOXOXOX XOXOXXX+X9., e.D >.Z.Y.Z.%.%.2.n 2.V.N.E . |. X X X}.OXOXOXOXOXOXOXOXOXOXOXOXOXOXOXOXOXOX",
"OXOXOXOXOX+XOXOXOXOXOXOXOXOXOXOXOXOX.XOXoX{.U |.  , #.0 f.V.T.Y.k.h.h.;.f.I.k.9 n f +X.XOXOXOXOXOXOXOXOXOXOX+XOXOX+XOXOX+XOXOXOX",
"OXOX+XOXOXOXOXOXOXOXOXOXOXOXOXOXOXOX}. X|.7.& @.N y s.j.V.J.W.(.T.V.Z.Z.I.Z.f.f.i.% A {.|.}.}.OXOXOXOXOXOXOXOXOXOXOXOXOXOXOXOXOX",
"OXOXOXOXOXOXOXOXOXOXOXOXOXOXOXOXOX7.c x o O %.p.N.N.j.C.J.Y.Y.W.Q.T.Y.Y.D.M.h.p.p.i.& o x c |.OXOXOXOXOXOX+XOXOXOXOXOXOX. OXOXOX",
"OXOXOXOXOXOXOXOXOXOXOXOXOXOXOXOXOX.X X{.{.c l s = y 8 % +.%.i.:.<.%.<.+.O.6 - = d z 5.{.}.}..  XOXOXOXOXOX+XOXOXOXOXOXOXOXOXOXOX",
"OXOXOXOXOXOXOXOXOXOXOXOXOXOXOX+X}.+XOX+XOXOX.XXX}.w.q.6.8.b b v v v b 8.6.6.q.w.OXOXOXOXOXOXOXOXOXOXOXOXOXOXOXOXOXOXOXOXOXOXOXOX",
"OXOXOX+XOXOXOXOXOXOXOXOXOXOXOXOXOXOXOXOXOXOXOX XOXOXOX+X+X+XXXXXoXoX+X+XOX+XOXXXOXOXOXOXOXOXOXOXOXOXOXOXOXOXOXOXOXOXOXOXOXOXOXOX",
"OXOXOXOXOXOXOXOXOXOXOXOXOXOX+XOXOXOXOXOXOXOXOXOXOXOXOXOX XOXOX.XOXOXOX XOXOXOXOXOXOXOXOXOXOXOXOXOXOXOXOXOXOXOXOXOXOXOXOXOXOXOXOX",
"OXOXOXOXOXOXOXOXOXOXOXOXOXOXOX+XOXOXOXOXOXOXOXOXOXOXOXOXOXOXOXOXOXOXOXOXOXOXOXOXOXOXOXOXOXOXOXOXOXOXOXOXOXOXOXOXOXOXOXOXOXOXOXOX"
};
