/* XPM */
static char *e5d04228c27a4856fc8392509e842cc1_1_1745170807[] = {
/* columns rows colors chars-per-pixel */
"64 64 254 2 ",
"   c #1A0812",
".  c #280C19",
"X  c #3A0C13",
"o  c #29121D",
"O  c #37181B",
"+  c #2E070B",
"@  c #3A231C",
"#  c #281727",
"$  c #371A27",
"%  c #30182A",
"&  c #37222B",
"*  c #372838",
"=  c #322737",
"-  c #1A182B",
";  c #46171B",
":  c #561B17",
">  c #4D0B13",
",  c #621C1C",
"<  c #77171C",
"1  c #55240E",
"2  c #4B2315",
"3  c #592519",
"4  c #4D220A",
"5  c #471B26",
"6  c #591A26",
"7  c #5A1529",
"8  c #641B25",
"9  c #761D26",
"0  c #681F32",
"q  c #482529",
"w  c #592429",
"e  c #5D3427",
"r  c #492A35",
"t  c #572936",
"y  c #43333B",
"u  c #4B363B",
"i  c #583639",
"p  c #4F3526",
"a  c #642424",
"s  c #68282B",
"d  c #75262A",
"f  c #6C332B",
"g  c #66392C",
"h  c #793528",
"j  c #672836",
"k  c #772A35",
"l  c #6A3538",
"z  c #773835",
"x  c #772E1F",
"c  c #5E4437",
"v  c #57422F",
"b  c #67483C",
"n  c #78473B",
"m  c #7B4D38",
"M  c #382E41",
"N  c #3C3344",
"B  c #3E364B",
"V  c #423544",
"C  c #4A3B46",
"Z  c #433A4C",
"A  c #4A3D4C",
"S  c #443646",
"D  c #563944",
"F  c #473D52",
"G  c #7A3A45",
"H  c #663945",
"J  c #4E414A",
"K  c #53434A",
"L  c #4B4254",
"P  c #4C455A",
"I  c #534A5C",
"U  c #564858",
"Y  c #5D535C",
"T  c #6A4547",
"R  c #784A48",
"E  c #75554B",
"W  c #6C5855",
"Q  c #765955",
"!  c #714F4E",
"~  c #76625B",
"^  c #78664E",
"/  c #554B62",
"(  c #5A5265",
")  c #635B6A",
"_  c #665C72",
"`  c #776667",
"'  c #736971",
"]  c #85282C",
"[  c #99292C",
"{  c #883827",
"}  c #882A34",
"|  c #952C34",
" . c #873538",
".. c #99363D",
"X. c #A9363A",
"o. c #B43537",
"O. c #B43A3D",
"+. c #B93839",
"@. c #A02C2D",
"#. c #842B26",
"$. c #87473A",
"%. c #954A39",
"&. c #97523C",
"*. c #8D4B36",
"=. c #9C3844",
"-. c #893542",
";. c #A93A43",
":. c #B23F45",
">. c #874945",
",. c #924B47",
"<. c #885649",
"1. c #985748",
"2. c #895752",
"3. c #975755",
"4. c #894850",
"5. c #A35948",
"6. c #A84F52",
"7. c #97624A",
"8. c #876658",
"9. c #986657",
"0. c #906E59",
"q. c #A6654C",
"w. c #A66955",
"e. c #B46C59",
"r. c #AA7359",
"t. c #B5735E",
"y. c #866868",
"u. c #96696B",
"i. c #8D7365",
"p. c #957A68",
"a. c #8B787A",
"s. c #987979",
"d. c #996B73",
"f. c #A36F65",
"g. c #A57666",
"h. c #B27570",
"j. c #935B61",
"k. c #C07974",
"l. c #9B8677",
"z. c #AB8373",
"x. c #A58678",
"c. c #B58679",
"v. c #B58E72",
"b. c #C08F7E",
"n. c #8C7C81",
"m. c #9A8687",
"M. c #988B93",
"N. c #A48B86",
"B. c #B78B86",
"V. c #AB9386",
"C. c #BC9E8C",
"Z. c #B69889",
"A. c #A69495",
"S. c #BD9D93",
"D. c #BA9B97",
"F. c #A18E91",
"G. c #BDA18C",
"H. c #BDA194",
"J. c #BCA499",
"K. c #B8B69D",
"L. c #BBB6A9",
"P. c #AD9CA4",
"I. c #C29D8B",
"U. c #C8958C",
"Y. c #C39C94",
"T. c #CA9A94",
"R. c #C39C9A",
"E. c #CA9C97",
"W. c #D19B93",
"Q. c #C4A18F",
"!. c #CAA48E",
"~. c #C2A294",
"^. c #C4A49B",
"/. c #CBA39A",
"(. c #C9AA98",
"). c #D3A998",
"_. c #CDB39B",
"`. c #C7B59A",
"'. c #D3B59D",
"]. c #D4BC9E",
"[. c #DABB9E",
"{. c #D9B49B",
"}. c #DBA88D",
"|. c #E3B69B",
" X c #E2A39A",
".X c #CB9EA2",
"XX c #C7A9A4",
"oX c #C5B5A6",
"OX c #CCB5A4",
"+X c #CCBAA4",
"@X c #C6B6AA",
"#X c #CBB5AB",
"$X c #C5BBAB",
"%X c #CDBAAB",
"&X c #C4BCA6",
"*X c #D3B5A3",
"=X c #DBB5A3",
"-X c #D5BCA4",
";X c #DABBA4",
":X c #D3B5A9",
">X c #DAB4AA",
",X c #D4BCAA",
"<X c #DBBDAB",
"1X c #CCBBB3",
"2X c #D2BDB2",
"3X c #DBBEB2",
"4X c #D5BBB7",
"5X c #D6ABA3",
"6X c #E2B5A3",
"7X c #E4B3AB",
"8X c #E8BAAA",
"9X c #E5BAB5",
"0X c #EBAFA4",
"qX c #CCC3A9",
"wX c #D5C2AC",
"eX c #DBC2AC",
"rX c #D7C0A5",
"tX c #D4C2B3",
"yX c #DBC3B3",
"uX c #DAC5BC",
"iX c #D6C3BA",
"pX c #CEC3B7",
"aX c #E1C2AB",
"sX c #E3C2B3",
"dX c #E7C7B8",
"fX c #F1C7B9",
"gX c #D4C09F",
"hX c #D7C6C3",
"jX c #DDD7CC",
"kX c #DEDDD1",
"lX c #EBD5CC",
"zX c #E5DACE",
"xX c #EADACD",
"cX c #E6D6CA",
"vX c #E5DBD2",
"bX c #EADBD2",
"nX c #E7D6D4",
"mX c #F2DCD2",
"MX c #ECCFC7",
"NX c #E8E3D7",
"BX c #ECE2D1",
"VX c #EEECEA",
"CX c #FCF4ED",
"ZX c #F6F7ED",
"AX c #EBFCFB",
"SX c #F5F6F3",
"DX c #FCF4F3",
"FX c #F4FAF4",
"GX c #FEFCF4",
"HX c #FCF5FA",
"JX c #F4FAFC",
"KX c #FEFDFA",
"LX c #F5F5FB",
"PX c #F4EEE9",
/* pixels */
"KXKXJXHXGXGXCXCXGXVXVXKXJXDXGXDXDXHXHXHXHXDXDXHXHXHXHXHXHXHXHXDXDXDXDXDXDXDXDXDXDXDXDXDXDXDXDXDXDXDXHXKXJXSXDXDXGXCXGXCXDXHXKXKX",
"JXKXKXGXGXGXGXGXGXGXKXSXKXGXKXGXKXKXHXKXKXHXKXKXHXKXKXKXKXKXKXKXKXHXKXKXKXKXKXHXKXKXHXKXKXKXKXKXKXGXGXGXKXKXKXGXGXGXGXGXGXKXKXKX",
"LXKXPXvXbXBXBXxXjXbXNXjXNXjXcXnXxXvXxXxXnXzXnXzXnXzXnXlXxXbXxXzXnXcXlXxXlXcXnXxXxXxXxXxXlXlXxXzXcXvXzXvXvXvXzXbXcXxXmXxXbXCXKXLX",
"HXKXvX$XOXqX+XOX+X&X1X$XtX1X%X#X%X%X%X%X,X%X,X%X%X,X%X%X%X%X%X%X,X%X%X%X%X%X,X%X%X%X%X%X%X%X%X%XOX2XpX1X1X$XoXqX].OX:XOX1XbXHXHX",
"GXGXbX&X_.rX].-XeXOX+XtXoX:X,XeX-XrX-X-X-X-XrX-X-X-X-XrX-X-XrX-X-XrX-X-X-X-XrX-X-X-X-XrX-XrX-X-X,X,X,XOX%X+XrXwX-X;X-X*XOXmXGXGX",
"CXGXxX+XeXeX[.gXrX-XwXyX:X:X<X-X;XgX].].;X].].].].].].].].].].-X].-X-X;X-X-X-X-X-X-X-X-X-X;X-X-X-X:X:X,X,XtXeX_.eX].aXrX:XxXGXCX",
"PXGXcXOXrXgX_.[.].rXeXH.yX,X<X-X-X-X-X-XrX].-X-X;X].-XgX;XgX-X-X-XrX-XrX-X;X-XrX-X-X-X-XrX-X-X,X-X*XyXsX`.`.eX_.[._.].;X*XxXDXCX",
"GXGXcX].eX;X{.aX_.,XJ.E ,X:X<X,X-X-X:X,X;X-X,X+X-X:X-X:X-X:X*X-X;X,X:X#X,X,X;X,X,X,X;X:X,X,X:X:X3X,XyX#Xl.x.:XeXaX{.;X-X+XxXGXCX",
"GXGXcX%XeXrX*X*X*XdXJ.c l.N.@X:X,XoX2X2X2XuX1XiXtXtXtX%XtXuX1X1X4XiXiXiXtXiXtX1XiX1XiX@X1XiXoX1XXX@XK.' Q K.%X,X_._.<XeX%XvXGXDX",
"SXKXvXL.OXwXeXeX,X&XiXP.K W y.` a.m.a.a.m.a.l.m.m.F.F.F.F.A.A.F.M.A.F.m.A.F.m.F.m.n.n.a.a.a.a.a.a.` ~ v l.tXtXOXeXgXeX+X&XvXGXDX",
"VXKXvX$XwXwXOX`.%XtXhX1Xy & A A y U S A U C J J J K K J J J J J C Z C C J N * J K U C A J S J J C * * V A.hX1X4X*X+XrX+X@XNXKXSX",
"SXKXkXqXtX,X:XyX1XhX1XP.y S * A A A Z F J A L S Z A Z A N * M = N = * S = * B * * M N M * N B * * y M P M.1XL.4XwX,XyX%X1XNXKXSX",
"FXKXvX@X2X,X,XyXhXXXnXY U Y F S F = Z B M F Z = B N M B M = N = = M M M N N N L B N / Z N / L N / B N I ' L.pX1X,X:XyXeX1XkXKXHX",
"DXKXvX@X,X,Xx.v A.hXP.M _ U ( / ( M / F B _ P F I P B ( P B P B M ( P N _ ( B ) F Z ( L B ( P B _ L P L W M.hX1Xi.l.(.tX%XvXGXGX",
"DXKXbX%XeXeX0.  H XXr U / / / _ / Z / F F ( F F ( P F ( I B I B M ( I N ( Y B ( L B I L B P P B / P ( P U ) F.V.p 8._.,X%XbXKXDX",
"GXDXxX%X*XaXQ.E O O V H Y F F P S I F N P P S F I A N / L B I N N L Y L B P I B A N N J V y K S B I J P S C v c T v.dXeXXXzXKXZX",
"DXGXxXOX:X<X=XsX8.O q o & . % r % # V % % F % 5 r & % % % r = & & o r * # = u * # % r . q 5 $ % C o . r r q b <.6X=X;X-X,XvXGXSX",
"GXGXxX#X;X<X<X8XC.i q @ r t t q 5 t 5 D t H t H t j H H H D $ q t 5 r i q r D u D H 7 H t j t t r i D q q e n f.6X6X6X<X%XzXGXFX",
"CXGXxXOX-X8X=X<XsXi ; q $ O 5 5 H H 7 0 0 H 0 7 0 j 7 6 0 0 w G z j j j t t t w 7 7 G 0 0 k 0 G t 5 5 q e q w ).0X6X;X;X%XzXKXFX",
"GXGXbX%X,X<X*X;X9XD.l.y.i E R l 7 7 > > 7 0 0 j G z k k j j s > > s j s f l l G R 6 0 7 > 7 > j ; Q Q q E B.Z.6X6X[.;X-X%XkXGXSX",
"GXGXBX%X,XeX'.;X_.dXMX3X.XMX9X3XR q ; O t e E 5X9X8X8XfX6X8X_.m s c.7X9XsXsX>X*X9XN.; a ; 6 w H .X9X9X>X9X9X<X8X;X[.-X-X%XzXKXSX",
"DXKXvX%XrX<X'.;XeX9X5XyX9X7X5XfXB.2 w 2 X T R.fXsX;X=X;X).aX|.$.>.I.8X'.`.'.eXdX9X>Xu.q + 5 t Q 9X9X9X9X3X:X;X[.[.].-X-X&XcXKXDX",
"FXKXvX$X,XrX'.;X;X<X:X>XXX>X=X>XB.w l g 2 g.fX!._.;X{.[.{.|.}.7.*.c.6X0X].{._.!.!.|.6Xw ; q t j.7X5X5X/.'.-X-XaX].[.rXqX%XcXKXDX",
"GXGXBX$X,XrX].8X;X'.<X>Xx.T b n f f f w z f <.R m g.7.w.t.r.t.5.w.t.t.r.r.r.r.r.9.g.z : j 6 t R h.w.f.p.(.dX`.rX].].-X-X%XnXHXDX",
"FXKXzX$XrX-X-X[.<X].<X(.<.v v g f : 8 , ,. .$.$.<.<.9.w.t.e.e.e.e.e.e.r.e.r.r.r.t.e.z h k > > 4.g.0.9.0.Z.-XrXgX].].+XwX%XzXGXDX",
"SXGXvXqX,X-X].]._.).;X(.8.g e x s : , ,  . .$.>.$.>.*.1.1.1.5.6.5.5.q.7.7.1.&.1.,.1.z , a s s >.9.7.m 8.v.rXrX].].].rX-X$XzXHXDX",
"SXKXkX%X,X-X].].eX-XaX_.i.b g e 2 g <.,.<.: > 1 2 4 2 2 2 1 3 3 : 1 1 1 4 4 4 4 1 4 1 3 <.g.>.g m m m 0.G.wXeXrX].].-XwX%XlXGXDX",
"SXKXzX%X-X;X-X[.;X*X;XyX<X;X;X*XaXB.8.<.1.f f z z.x.x.l.x.z.c.h.h.z.z.z.z.z.z.v.1.3 f f <.g.v.=X).=X;X-XeXwX-X_.].].-X,X%XlXKXDX",
"HXKXzX%X,X-X-X[.eX].:X;X,X,X<X'.dXv.<.<.w.$.z z !./.(.^.^././././.!.(./.(.(./.).u.: z m 7.q.t.|.{.aXrX[.*X*XrXaX[.*X;X,X%XnXKXDX",
"SXGXvX%X,X-X].*X'.;XwX<X<X,X>X,XrXv.7.7.5.h %.1.U.T.~.~.~.^.R.Y.I.Y.Y.S.H.S..XE.h.a h m r.e.v.|.;XeX-X-X<X,X:XrX;X=X;X<X%XcXGXDX",
"DXKXzX%XrX-X;X].*XeXyX,X,X,X*X;XyXv.m 7.w.%.,. .U.U.Q.H.H.D.Y.Y.R.^.R.D.XXR..X.Xu.s z m q.q.v.|.{.*X*X-XyXeX*X'.=X;X;X,X,XzXGXCX",
"DXGXzX%X-X-X;X,X,X,X#XoX2X2X:X#XwXb.^ 7.w. .,.,.W.T.~.H.H.J.R.R.Y.S.R.D.D.D.R..Xg.l f h r.q.v.{.-XqX+X+X:X,X:X3X>X;X;X;X%XzXGXDX",
"ZXGXxX-X].rXwXuXhXhXhXdXhXhXhXhXcXv.8.7.w.*.n <.T.Y.H.G.C.D.R.Y.S.Y.Y.Y.Y.C.S.^.s.; z m &.w.b.fXhXpXhXhX4X4XhXhXhXhX*XsX(.cXGXZX",
"SXGXcX(.eXdXN.K ' n.a.a.' n.n.a.a.8.<.7.7.$.3 3 R.D.H.G.G.S.T.R.D.~.Y.I.T.G.G.^.s.X z { 7.w.9.8.m.M.m.m.N.n.M.A.` ` dX<X,XxXGXVX",
"SXKXxX_.eXOX~ & % = & @ & & # . . 2 m 7.7.1.f 3 R.Y.H.G.G.Y.R.R.D.~.Y.Y.Q.G.H.J.y.X a m &.r.*.O y u r p r i D S V q S.,XwXBXGXJX",
"AXKXbXtXwXp.i K * u r r u r $ % $ e g.9.&.&.f w R.R.S.G.G.~.Y.R.Y.~.Y.Y.T.C.C.XXy.; h h &.r.8.+ u C i t D D D S D o b :X%XvXKXKX",
"KXJXjXiX,Xy.@ & & & q 5 5 $ o % X 2 9.q.&.q.$.2.T.R.S.G.G.I.R.R.S.S.Y.I.Q.G.C.~.s.w  .h *.r.9.X $ 5 5 ; 5 q 5 * # $ @ 3X#XvXKXAX",
"AXKXvX$XqXZ.~ Y D t w j 0 7 t 5 5 a 3.r.1.%.$.4.T.Y.H.G.G.~.Y.R.S.Y.Y.Y.Q.Q.G.^.s.w z h %.e.2.> q t t 8 j t r t u ! i.yX%XbXKXJX",
"AXKXNX+X,XyX@X.X! 6 7 s 8 7 j 5 w s 1.t.5.%.>.>.E.Y.S.G.G.C.R.R.S.^.Y.I.Q.C.G.^.d.t h x &.q.2.; w j 8 8 0 6 5 D N.XX,XyX%XbXKXJX",
"JXGXzX%X,X>X4X9Xd.j 8 k 9 0 G 0 6 f ,.e.5.*.,.>.T.Y.C.G.G.H.Y.R.D.J.Y.Y.Q.G.C.XXs.e s x *.&.<.s j j 0 9 } 9 j R >XMX*X,XOXcXKXJX",
"LXKXxX*X-XrX;X9Xh.k } ] | ] k k s : ,.e.&.&.5. .U.R.^.G.C.G.Y.Y.D.S.Y.Y.I.Q.G.^.u.l s x { *.1.s k  .] [ | | 8 j.7X>X;X;X-XcXKXHX",
"HXKXxX].].|.=X9Xh.} X.| @.[ } 9 0 s 5.e.%.&.$.d B.U.Y.C.C.G.Y.S.~.S.Y.Y.I.C.G.^.H 5 h { { %.1.a k =.| X.X.X.9 j.7X>X;X[.'.xXGXSX",
"HXGXxX].[.|.=X8Xk. .O.o.O.[ | 9 8 a 5.e.&.&.%.z B.Z.G.G.C.Q.Y.S.H.H.Y.Y.I.Q.~.^.H w z { { *.3.s ] X.@.O.o.X.9 6.7X7X=X[.].cXKXHX",
"HXKXxX].gX[.6X8Xh.{ O.O.O.@.| 9 8 , 1.e.5.1.,.>.U.Y.Q.G.G.G.Y.S.H.H.Y.Y.I.I.H.^.d.l h ] { %.6.s 9 ..o.+.o.X.9 6.7X7X[.-X].cXKXDX",
"HXKXBX`.gX[.[.8Xh.| O.o.+.@.} 9 s a &.e.5.:.&.>.T.~.~.G.G.Q.Y.Y.H.H.Y.Y.I.I.H.^.d.j h { %.%.1.9 ] X.o.+.o.o.< 3.7X;X].gX+XcXKXSX",
"HXKXxX+XgXgX{.8Xk.} X.O.O.@.] d a a 1.e.q.%.$.*.T.Y.Q.G.C.G.Y.^.H.S.Y.Y.I.Q.Y.^.d.j d  .%.{ ,.d ] X.o.+.o.o.< 6.6X;X].gX+XcXKXJX",
"HXKXzX+XqXgX-X9Xk.} X.o.O.[ ] d , s 1.q.q.&.,.>.T.I.C.G.G.G.~.Y.H.D.S.Y.I.I.G.^.d.l d { { @.1.k k X.X.+.+.O.9 3.7X>XqXqX$XkXKXLX",
"LXKXNX&XgX-X-X8Xh.h X.O.:.| ] 8 a z 1.1.&.1.,.$.T.U.C.G.Q.Q.D.D.H.H.S.~.I.I.~./.d.l d { { %.,.a ] ;.X.+.+.:.9 3.7X:X+XqXqXkXKXLX",
"HXGXNXK.qXgX_.aXt.] 6.;.;.[ ] 9 a z <.3.5.,.$.2.W.W.U.(.B./.^.R.S.^.D.Y.Y.U.U.).f.a f z z z 3.0 ] 6.X.o.;.:.< 6.8X=XOXqXL.NXGXJX",
"FXGXNXL.qXrX].8Xk.] =.=.6.| } 9 6 e G R 2.<.>.n U.U.U./.C.^.S.Z.D.D.Y.T.R.T.T.W.2.f s w j l R k ] X.;.X.;.;.9 6.0X6X;XtXqXkXGXDX",
"HXGXBX&XyX-X=X0Xt.] =.=.=.} ] 9 ; 5 c w q q R 4.T.E.T.~.C.^.~.J.J.H.S.D.Y.Y.R.XXu.T X + 5 $ $ X 9 ;.;.;.;.=.< .. X8X<XyX#XnXDXDX",
"HXGXbX$XwX'.6X0X,.9 ..=.=.} } 0 r $ V & q q T b B.Y.Y.Y.S.H.H.~.J.Z.Z.S.S.S.R..X! i O . # . - 5 8 | -.=.=.=.d ,.W.8X*X,X#XbXHXHX",
"HXKXbX1XpX_.aX6X,.z k  .-.k 0 7 * - J J K r D u N.R./.^./.(.H.~.^.S.(.*X/.XXXX.XT $ # $ = # - * 7 k  . . .-.s s U.9X*X%X#XbXKXDX",
"DXKXkX$XqX+XaX_.2.4.-.G -.G -.H * - N N * $ K ! R.#XXXS.*XOX*X:X,XOX:X:XJ.J.XX1Xa.y o % - - -   H z G 4.-.j.<.R c.sX+XpX1XvXHXDX",
"SXKXkXqXpX+XwXx.b E Q <.R 8.s.N.' ' Y W ` ' l.m.A.Z.x.i.Z.G.(.(.(.G.H.Z.p.p.V.D.F.a.` _ U Y ) ' A.x.u.E T R 2.E p.eX$XqXqXkXKXDX",
"HXGXkXL.qX&X+Xl.v E T c c E 8.~ ~ ` ' ` ` ~ W Q Q E b c i.x.p.0.0.0.l.i.b b W E E ` ~ ` ` ' ` ' W E ~ E K b E v ^ +XqXqXqXjXGXZX",
"PXGXkXL.pXwX`.`.J.(.J.Z.V.l.l.l.x.l.l.i.i.l.x.x.x.x.x.Z.C.G.G.G.G.G.G.C.Z.V.x.x.x.N.N.N.N.N.N.l.l.l.l.l.V.V.J.J.`.K.wXqXqXBXGXVX",
"GXGXBXoX+XrX'.-XrXwXtXtX%XwX%XrX-XeX*X]._.:X<X<X<XeXeXeXyXeXwXrXrXeXeXeXeXeX<X<X3X<X8X<X<XeX<X<XtXpXtXpXpXqXqXrXgX'.eX+XK.xXGXGX",
"CXCXlXOX-XaX=X<XOX*X>X:X:X:X,X-X].[.].].[.;X;X;X,X;X,X:X+X+X+X,X+X+X:X,X,X,X:X,X;X;X:X;X;X[.[.;XrXwX:X,X%X%X:X'.;X'.8X;XOXlXGXCX",
"CXGXmX<XeX8X=X=X3XyX4XyX,X3X<X-X;X[.;XrX-X-X<X,X<X2XwX2X2X2XtXtXtXwXwXwX,X2X<X,X<X<X-X<X;X[.;X;X,XwX3X2XyXyX3X<X;X=X<X<X<XmXGXCX",
"GXGXxX:X*X;X>X<X:X1X1X%X#X#X#X:X`.`.+X`.&XOX#X#X%X1X$X%X%X@X@X@X@XoXoX@X#X#X#X%X#X#X#X+XOXOX].*X,X:X:X1X%X#XOX*X>X=X>X:X1XlXHXHX",
"ZXDXVXzXMXlXlXlXnXvXvXvXbXbXbXxXBXzXzXBXvXvXvXNXbXvXbXbXbXbXzXzXxXxXxXxXbXbXbXbXbXbXbXbXBXBXzXxXmXxXxXnXzXzXbXxXlXlXlXlXnXVXLXKX",
"AXJXGXGXGXGXGXGXKXKXKXJXKXGXGXGXGXGXGXKXKXGXKXKXGXKXKXKXGXGXGXGXGXGXGXGXKXGXKXKXKXKXKXKXGXKXGXGXGXGXGXGXGXGXGXGXGXGXGXGXKXKXJXAX",
"AXAXAXFXCXZXCXZXDXSXFXFXFXGXZXZXFXFXFXFXJXSXSXLXKXKXJXSXCXGXCXCXCXCXCXDXDXKXHXKXFXHXJXJXJXFXFXFXCXCXGXGXFXZXZXPXCXCXCXSXJXAXAXAX"
};
