/* XPM */
static char *Screenshot_from_2025_04_20_15_51_121745160717[] = {
/* columns rows colors chars-per-pixel */
"64 64 5 1 ",
"  c #A89295",
". c #AB9598",
"X c #6C5E60",
"o c black",
"O c white",
/* pixels */
"                                                             .Xo",
"                                                             .Xo",
"                                                             .Xo",
"                                                             .Xo",
"                                                             .Xo",
"                                                             .Xo",
"                                                             .Xo",
"                                                             .Xo",
"                                                             .Xo",
"                                                             .Xo",
"                                                             .Xo",
"                                                             .Xo",
"                                                             .Xo",
"                                                             .Xo",
"                                                             .Xo",
"                                                             .Xo",
"                                                             .Xo",
"                                                             .Xo",
"                                                             .Xo",
"                                                             .Xo",
"                                                             .Xo",
"                                                             .Xo",
"                                                             .Xo",
"                                                             .Xo",
"                                                             .Xo",
"                                                             .Xo",
"                                                             .Xo",
"                                                             .Xo",
"                                                             .Xo",
"                                                             .Xo",
"                                                             .Xo",
"                                                             .Xo",
"                                                             .Xo",
"                                                             .Xo",
"                                                             .Xo",
"                                                             .Xo",
"                                                             .Xo",
"                                                             .Xo",
"                                                             .Xo",
"                                                             .Xo",
"                                                             .Xo",
"                                                             .Xo",
"                                                             .Xo",
"                                                             .Xo",
"                                                             .Xo",
"                                                             .Xo",
"                                                             .Xo",
"                                                             .Xo",
"                                                             .Xo",
"                                                             .Xo",
"                                                             .Xo",
"                                                             .Xo",
"                                                             .Xo",
"                                                             .Xo",
"                                                             .Xo",
"                                                             .Xo",
"                                                             .Xo",
"                                                             .Xo",
"                                                             .Xo",
"                                                             .Xo",
"                                                             .Xo",
"                                                             .Xo",
"                                                             .Xo",
"                                                             .Xo"
};
