/* XPM */
static char *_591f2c0d4a37a7499116b25be074c141745159998[] = {
/* columns rows colors chars-per-pixel */
"64 64 225 2 ",
"   c #050402",
".  c #170B0A",
"X  c #07160E",
"o  c #0B0817",
"O  c #161913",
"+  c #250A0A",
"@  c #2A0B17",
"#  c #271919",
"$  c #37171A",
"%  c #300004",
"&  c #1C251D",
"*  c #27221F",
"=  c #0F142A",
"-  c #12162F",
";  c #341B29",
":  c #2A2321",
">  c #262728",
",  c #3B2D2D",
"<  c #372628",
"1  c #29352E",
"2  c #2A2B36",
"3  c #332835",
"4  c #393539",
"5  c #49121D",
"6  c #4A1C22",
"7  c #551828",
"8  c #721F2F",
"9  c #462629",
"0  c #48322D",
"q  c #482B37",
"w  c #572937",
"e  c #463B3D",
"r  c #483637",
"t  c #56373A",
"y  c #58292A",
"u  c #6D2B36",
"i  c #68373A",
"p  c #752A32",
"a  c #39443B",
"s  c #46413F",
"d  c #1A2845",
"f  c #393845",
"g  c #30374E",
"h  c #423F48",
"j  c #553E41",
"k  c #663943",
"l  c #783748",
"z  c #3B445B",
"x  c #3B5044",
"c  c #494749",
"v  c #5A4B4C",
"b  c #554647",
"n  c #4A544D",
"m  c #59574E",
"M  c #494855",
"N  c #5D4D52",
"B  c #544C55",
"V  c #4C5656",
"C  c #595657",
"Z  c #634A4B",
"A  c #69454A",
"S  c #7C424E",
"D  c #72434B",
"F  c #674B56",
"G  c #774A55",
"H  c #625455",
"J  c #635C5A",
"K  c #6C5B5C",
"L  c #655556",
"P  c #76575C",
"I  c #7A534E",
"U  c #5C635E",
"Y  c #62615D",
"T  c #454D63",
"R  c #545A6D",
"E  c #5B5965",
"W  c #585E74",
"Q  c #4D586C",
"!  c #675D65",
"~  c #765E67",
"^  c #586662",
"/  c #576278",
"(  c #6D6363",
")  c #69626B",
"_  c #666668",
"`  c #726363",
"'  c #7A6264",
"]  c #7D6A6A",
"[  c #746868",
"{  c #647267",
"}  c #636475",
"|  c #696A77",
" . c #7A6A74",
".. c #697F74",
"X. c #797679",
"o. c #892B35",
"O. c #952F3C",
"+. c #883C48",
"@. c #9C3442",
"#. c #85364E",
"$. c #96484A",
"%. c #844B5A",
"&. c #984956",
"*. c #84505D",
"=. c #845D5E",
"-. c #915256",
";. c #A5444F",
":. c #A75258",
">. c #A64858",
",. c #994C62",
"<. c #875865",
"1. c #9C5866",
"2. c #A45963",
"3. c #B65865",
"4. c #B45A73",
"5. c #AD556C",
"6. c #886569",
"7. c #95636B",
"8. c #9A6B76",
"9. c #857C7B",
"0. c #8B7D7D",
"q. c #857477",
"w. c #937A7C",
"e. c #866D71",
"r. c #A8666C",
"t. c #B9636A",
"y. c #A56776",
"u. c #B36B7A",
"i. c #C0596C",
"p. c #C1676B",
"a. c #C66677",
"s. c #CB747D",
"d. c #79857D",
"f. c #85817C",
"g. c #96817C",
"h. c #626D83",
"j. c #6C7283",
"k. c #697388",
"l. c #767988",
"z. c #757B90",
"x. c #847A86",
"c. c #877D87",
"v. c #957C85",
"b. c #9A7983",
"n. c #B66D85",
"m. c #B27384",
"M. c #A07D81",
"N. c #CB7A8A",
"B. c #798294",
"V. c #788D85",
"C. c #8C8283",
"Z. c #848887",
"A. c #958384",
"S. c #94868A",
"D. c #9D858B",
"F. c #958B8A",
"G. c #9C8B8D",
"H. c #998385",
"J. c #8B938C",
"K. c #93928D",
"L. c #888794",
"P. c #948C94",
"I. c #9D8C92",
"U. c #9B8E99",
"Y. c #978F9A",
"T. c #839492",
"R. c #9D9494",
"E. c #939D95",
"W. c #9C9A96",
"Q. c #9C939B",
"!. c #969897",
"~. c #A48A8D",
"^. c #AA8C8D",
"/. c #A68589",
"(. c #AC908E",
"). c #A4908F",
"_. c #A48E92",
"`. c #AB8E95",
"'. c #AC8E9B",
"]. c #B48C95",
"[. c #B68B97",
"{. c #A59395",
"}. c #A89295",
"|. c #A5949A",
" X c #AB949A",
".X c #A69999",
"XX c #AB9A9C",
"oX c #A59897",
"OX c #B29396",
"+X c #B3959C",
"@X c #B39A9D",
"#X c #B9969A",
"$X c #B6878F",
"%X c #95A49B",
"&X c #9B9AA1",
"*X c #8C94A7",
"=X c #AB9BA3",
"-X c #A499A2",
";X c #B39CA2",
":X c #BA98A1",
">X c #98A3A5",
",X c #ADA4A4",
"<X c #ACA5AE",
"1X c #A6A5A1",
"2X c #B3A2A5",
"3X c #B6ACAB",
"4X c #B8A6AA",
"5X c #AAB6AB",
"6X c #B6AAB1",
"7X c #AEB9BA",
"8X c #BBB4BC",
"9X c #C09DA1",
"0X c #C0A5A8",
"qX c #C6B7B8",
"wX c #B1C7BA",
"eX c #C8BCC8",
"rX c #BEC7CC",
"tX c #CDC4C9",
"yX c #CBC8D3",
"uX c #D3D2D2",
"iX c #E4D0D2",
"pX c #D9D7E3",
"aX c #E3DDE9",
"sX c #D8E4E2",
"dX c #F5EEF3",
/* pixels */
"}.}.}.}.}.}.}.}.{.}.}.}.}.{.}.}.=XM.=X;X`.`.#X/.(.(.OX`./._.=X X`.^.~.OX(.^.OXg.(.(.OXOX`.}.'.|.|._.}.}.}.}.}.}.}.}.}.}.}.}.}.{.",
"}.}.}.}.}.}.}.}.}.}.}.}.}.}.}.}.;XD.'.b.OX`./.OXOX^.^.#X X X'.`. XXX}.@XOX(.#X(.(.(.(.}.}.}. X|.|.`.}.}.}.}.{.}.}.}.}.}.}.}.}.}.",
"}.}.}.}.{.}.}.}.}.}.}.}.}.}.}.}._.=X_.}._.#Xw.4XOX~.`.@X'._.|.'.}.XX~.}.oX(.#X(.(.}.^.}.'.}.}.|.}.}.}.}.}.}.}.{.}.}.}.}.}.}.}.}.",
"}.}.}.}.}.}.}.}.}.}.{.}.}.}.}.}.I.2X}.}.+X;X`.^.}.`.@X X~.I.-X-X{.=XR.{.(.).OX(.(.OX}.OX}.}.'.}.}.}.}.}.}.}.}.}.}.}.{.}.}.}.}.}.",
"}.}.}.}.}.}.}.}.}.}.}.}.}.}.}.}.XX{.{.~.2X] 0Xg.).{.XX{.U.-X=XY.P.<X-X-XoXR.}.}.}.}.}.^.`.}.}.}.}.}.}.}.}.}.}.}.}.}.}.}.}.}.}.}.",
"}.}.}.}.}.{.}.{.{.}.}.}.}.}.}.{.{.XX_.6XK r g.@X{.).{.Q.U.-XY.x.) L.z.c.1X{.{.}.}.}.}.}.}.}.}.}.}.}.}.}.}.}.}.}.}.{.}.}.{.}.}.}.",
"}.}.}.}.}.}.}.}.}.}.{.}.}.}.}.{.S.2XG.)., v K XXXXR.|.Q.X.! } | h W B E L.-XoX|.}.}.}.}.}.OX}.}.}.}.}.}.}.}.}.}.}.}.}.}.}.{.}.}.",
"}.}.{.}.}.}.}.}.}.}.}.}.}.}.}.{.XXG..X, ` A.e.[ XXoX1XP.h o 2 } T W f f j.Y.&X|.}.}.}.}.}.`.OX}.}.}.}.}.}.}.}.}.}.}.}.}.}.}.}.}.",
"}.}.}.}.}.}.}.{.}.}.}.{.}.}.}.{..XI.g.K XXoXK ` U.c.C E g Q h.h.z.R j.z.f 4 c.-X'.}.}.}.(.{.}.{.}.}.}.}.}.}.}.}.}.}.}.}.{.}.}.}.",
"}.}.}.}.}.}.}.}.}.}.}.}.}.}.}.}.).{.K X..XoXX.( c.&Xh 4 B.z.h.h.h.*XW M V M <XI.{.}.{.}.{.}.}.}.}.{.}.}.}.}.}.{.}.}.}.}.}.}.}.}.",
"}.{.}.}.}.}.}.}.}.}.}.}.}.}.}.{.).{.s G.{..XF._ ) <Xj.B z.M h.z.j.R z.l.x.E P.R.{.{.}.{.{.}.}.}.}.}.}.}.}.}.}.}.{.}.}.}.}.}.}.}.",
"}.}.{.}.}.}.}.}.{.}.}.}.}.}.}.}.XXg.Z XX).XX{.K 9.) } | h.Q h.h.T j.j.2 } B e 6X{.{.{.{.{.{.}.}.}.}.}.}.}.{.}.}.}.}.}.}.}.}.}.{.",
"}.}.}.}.}.}.}.}.}.}.}.}.}.}.}.}.;X` ] oX X{.|.q.P.h E } z k.h.z / j.M z E > e 2X{.{.(.{.{.{.}.}.}.}.}.}.{.}.}.}.}.}.}.}.}.{.}.}.",
"}.}.}.}.{.}.}.}.}.}.}.}.}.}.}.{.@XZ g.).=X_.-XU.! M | g = / d T L.f &XyX! < N .X{.{.}.{.}.{.}.}.{.}.}.}.}.}.}.}.}.}.{.}.}.}.}.}.",
"}.}.}.{.}.}.}.}.}.{.{.}.}.}.}.}.#XZ H._.@X}.'.-X! h h = - z d h.W | dXP.4 h t 2XoX{.{.{.{.{.}.}.}.}.}.}.}.}.}.{.}.}.}.}.}.{.}.}.",
"}.}.}.}.}.}.}.}.}.}.}.}.}.}.}.}.@XL w.}.@XG.'.-X-XB h f ; o = j._ Z.uXX.c : C {.{.{.}.{.}.{.oX{.}.}.{.}.}.}.}.}.}.}.}.}.}.}.}.}.",
"}.}.}.}.}.}.}.}.}.}.}.}.}.}.}.{.{.b 6.:X_.@X~.XX_ c 4 @ n.%.@ ) J.uXuXE.1 X s <XI._.`.}.}.{.{.).}.}.}.}.}.}.}.}.}.{.}.{.{.}.}.}.",
"}.}.}.}.{.}.}.}.}.}.{.}.}.}.}.{.3XF.0 /.4Xv.}.q.C _ # *.4.4.A s f.5XJ.  1 X U K.{.}.`.`.OX}.).).{.}.{.}.}.}.}.}.}.}.{.}.{.}.}.}.",
"}.}.}.}.}.}.}.}.}.}.}.}.}.}.}.}.~.XXP q.G.3XoXe R., ; m.#.n.t < ( m O   O . B F.|.|.`.`.}.}.).oX{.}.}.}.}.}.}.}.}.}.}.}.}.{.}.}.",
"{.}.}.}.}.{.{.{.}.}.{.}.}.{.}.}.}.#XOX' s J.J.C =X9 y.n.,.&.~ ! 0 g.q.F.. . e C.=X=XOX}.}.}.{..X}.}.}.}.{.}.}.}.}.}.}.}.}.}.}.}.",
"}.}.}.}.}.}.}.}.}.}.}.}.}.}.}.`.#X#X/.).( a a d.K w 2.&.1.j H.b 9 =.A ' P e < H  X X'.}._.}.{.{.{.}.{.}.}.}.}.}.}.}.}.{.}.}.}.}.",
"}.{.}.}.{.}.}.}.{.}.}.}.}.}.}.OX/.^.~.2X3XU X J.! l 5.,.8.P P t y 6 6 I F 0 < K '.'.}.'.}.}.{.{.}.}.}.}.}.}.}.}.}.}.}.}.}.}.}.}.",
"}.}.}.}.}.}.}.}.}.}.}.}.}.}.}.}.:X^.@Xg.R.1Xx d.r k u.y.< ; . 1.r.2.-.7.9 b.F q `.`.`. X}.{.{.R.{.}.}.}.}.}.}.}.}.}.}.}.}.}.}.{.",
"}.}.}.}.}.{.}.}.}.}.}.}.}.}.}.}.`.`.~.4Xg.1XT.a < D l %.# # k u.p :.r.r.i 6.$ j _._.`.`.}.{.{.{.}.}.}.}.}.}.}.{.}.}.}.}.}.}.}.}.",
"}.}.{.}.}.}.}.}.{.}.}.}.}.{.}.}._.oX{._.#X:X9.n b iXS . 4 * S 4.;.a.3.r.*.A t H.:XXX X+X X{.{.{.{.}.}.}.}.}.}.}.}.{.}.}.}.}.}.}.",
"}.}.}.}.}.}.}.}.}.}.}.}.}.}.}.{.oX.X_.~.[.#XI.q.< qXiX` > . l a.i.o.t.r.i i /.'  X_.`.}.}._.oXXX}.}.}.}.}.}.}.{.}.}.{.}.}.}.}.}.",
"}.}.}.}.}.}.}.}.}.}.}.}.}.}.}.{.W..X{.`.].[.#X@X[ : 8XW.{   #.5.O.O.s.t.%.A w.]  X_._._.}.{.}. X}.}.}.}.}.}.}.}.}.}.}.}.}.}.}.{.",
"}.}.}.}.}.{.}.}.}.{.}.}.}.}.}.{.R.{..X X].].[.#XH.: a d.R.e.u #.O.a.3.-.i t t w.=X X}.}.}.}.}.}.{.}.}.{.}.}.}.}.}.}.}.}.}.}.}.}.",
"{.}.}.}.}.}.}.}.}.}.}.}.}.}.}.}.}.{.{..X}.~.$X[.H.f.1 n tXOX8 +.o.o.o.$.i i s 6.{.oXXX X}.OX}.`.}.}.}.}.}.}.}.}.}.}.}.}.}.}.{.}.",
"}.}.}.{.}.}.}.}.}.}.}.}.{.}.}.}.+X_.K.R.W.{.[.[.@XK.n & A.t k u 3.$.-.-.i + 0 s 9.F.}. X'.}.}.}.}.}.}.}.}.{.}.}.}.}.}.}.}.}.}.}.",
"}.}.}.}.}.}.{.}.}.}.{.}.}.}.}.OX[.OX{.!.%XoX#X[.OXR.a & + G G % $.:.$.i I $ s ,X` 9.{. X}.`.}.}.}.}.}.}.}.}.}.}.{.}.}.}.}.}.}.}.",
"}.}.}.}.}.}.}.}.}.}.}.}.}.}.}.}./.[.XXW.E.%X]./.OXw.# e 7.y.r 9 o.p.$.r.r.i + [ C X.{. X X`.OX}.}.}.{.}.}.}.}.}.}.}.}.{.}.}.}.}.",
"}.}.}.}.}.}.}.}.}.}.}.}.}.}.}.}.{.{.}.}.{.R.{.{.;X<.6 l u 7.t 0 i p.p.;.p.p y , K.n G.XX`.`.{.{.}.}.}.}.}.{.}.}.}.}.}.{.}.}.}.}.",
"}.}.{.}.{.}.}.}.{.}.}.}.}.}.}.{.{.{.}.}.{.{.W.{.{.<.7 ,.u.D H r i $.;.$.3.8 i < K.c A.oX`.`.}.{.}.}.}.}.}.}.}.}.}.}.}.}.}.}.}.}.",
"}.}.}.}.}.}.}.}.}.}.}.}.}.}.{.{.oX).}.].}.{.Q.R.2XA 7 y.1.6.b 0.y :.s.p.s.o.=.m X.c f. XOX X}.}.}.}.}.}.}.}.}.}.}.}.}.}.}.}.}.{.",
"}.}.}.}.}.}.}.}.}.}.}.}.{.}.{.(.R.oX}.OX}.{.W.oX;Xb $ ,.k Z N 6X0 $.:.p 1.%.I , n n S. X'.+X}.}.}.}.{.}.}.}.}.{.{.}.}.}.}.}.}.}.",
"}.{.}.}.}.}.}.{.}.}.}.}.}.}.{.oXoXR.{.}.|._.oXW._.v.w 8.b.; P.U.j 8.y.,.m.*.~ c : E W.XX~.+X{.}.}.}.}.}.}.}.}.}.}.}.{.}.}.}.}.}.",
"}.}.}.}.}.}.}.}.}.}.{.}.}.}.}.}.).{.{.(.}.{.{.Q.4Xv.; j j q <XeX; k <.%.<.q  . .> X.-XXXG.#X}.(.{.}.}.}.}.}.}.}.}.}.}.}.}.{.}.}.",
"}.}.}.}.}.}.}.}.}.}.}.}.}.}.}.{.).oX{.}.}.{.|.U.'. .~ b.x.eX8XaXx.q 9 ; q N qXl.M !.W.XX_.#X~.}.}.}.}.}.}.}.}.}.}.}.}.}.}.}.}.}.",
"{.}.}.}.}.}.{.}.}.}.}.}.}.}.}.}.oX(.{.}.}.{.'.'.U.~ x.x.8XyXpXyX<XF  .) j -XdX! X.<XI.{.}.@X/.@X}.}.}.}.}.}.}.}.}.}.}.}.}.{.}.}.",
"}.}.}.}.}.}.}.}.}.}.}.}.}.{.}.}.{.(.).{.{.}.}. X=X! h ) L.yXpXaX=X3 3 X.c } Q.c I.U.Q.{.{.}.(.OX}.}.{.}.{.}.}.}.{.}.}.}.}.{.}.}.",
"}.}.}.}.}.}.}.{.}.}.}.}.}.}.{.}.{.{.{.{.{.{.}. X|.U.f C V 4 M x.B 3 2 Y.| M 2 l.U.{.|.|.{.).^.}.}.}.}.}.}.}.}.}.}.}.}.}.}.}.}.}.",
"}.}.}.}.}.}.}.}.}.}.}.}.}.}.}.}.{.{.{.oX{.}.].'._.4XV.^ >X7X_ ~ =XS.c X.7XrXh U.'.-X-X{.{.).).^.}.}.}.}.}.}.}.}.}.}.}.}.}.{.}.}.",
"}.}.}.{.}.}.}.}.{.}.}.}.}.}.}.}.(.oXoX).{.}.].]. XF.d.x *XX.| 4Xb.@X%Xz ^ T.M -X'.'.|.oX{.}.(.OX}.}.}.}.}.}.}.}.}.}.{.}.}.}.}.}.",
"{.}.}.}.}.}.}.}.}.}.}.}.}.}.}.}.{.).oXR.{.}.[.[.^.3Xd.d.wX> }.OX:X`.1X^ V.7X! =X'.'.}.{.Q.{.}.(.}.}.}.}.}.}.}.}.{.}.}.}.}.}.}.}.",
"}.}.}.}.}.{.}.}.{.}.}.}.}.}.}.}.{.oXR.oX{.}.].[.@X1XU d.5Xa qX^./.:XW.d.T.sXB `.'.'._.{.W.oX{.OX}.}.}.}.}.}.}.{.}.}.}.}.}.}.{.}.",
"}.}.}.}.{.}.}.}.}.}.}.}.}.{.}.}.}.{.R.R.{.}.].$XOX] U %XwXn e.OX$X9XR.U d.uXB v.:X[.'.Q.R.W.}.).}.}.}.}.}.}.}.}.}.}.}.}.}.}.}.}.",
"}.}.}.}.}.}.}.}.}.}.}.}.}.}.}.}.}.}.{.{.{.}.].[.OXW.& { d.m g.9X[.M.,X_ U J.C A.:X'.'.U.{.oX}._.}.}.}.}.}.{.}.}.}.}.}.{.}.}.}.}.",
"}.}.}.}.}.}.}.}.}.}.}.}.{.}.}.}.}.}.}.}.}.}.OX}.@X] c f.a J XXoX:XD.}.,XB F.XXK K ;X4XI.{.XX~.'.}.}.}.}.}.}.}.}.}.}.}.}.}.}.}.}.",
"}.}.}.{.}.{.}.}.}.}.}.}.}.}.}.}.}.].}.}.}.}.}.{.2X` ` tXoXY W.XXXX_. X Xb G.tXqXF.9.C.{. X_._. X}.}.}.}.{.}.}.}.{.}.{.}.}.}.}.{.",
"}.}.}.}.}.}.}.}.{.}.}.}.}.}.}.}.`.}.].}.}.{.{.{.G.v g.dXiX( C.G.}. X XG., v [ X.qX .0.2X_.I.;X X}.}.}.}.}.}.}.}.}.}.}.}.}.}.}.}.",
"}.}.}.}.}.}.}.}.}.}.}.}.}.{.}.}.}.}.}.}.}.}.{.{.2XH b m J , f.XXI. X_._.` ( H N C b 0.6X|. X;Xv.}.}.}.}.}.}.}.}.}.}.}.}.}.}.}.}.",
"}.}.{.{.{.}.}.}.}.}.}.}.}.}.}.}.}.}.].}.}.}.}.{.XXF.f.g.f.f..X.X X X_.XX-X=X{.=X6X2X2XoXH._.;X+X}.}.}.}.}.}.}.{.}.}.}.}.{.}.}.}.",
"}.{.{.OX}.}.}.{.}.}.}.}.}.}.}.}.}.}.}.}.}.}.{.{.OXXXI.@XXX2XR..X X=X}._.}.oXoX=XH.G.S.{.;X=XI._.}.}.}.}.}.}.}.}.}.}.}.{.}.}.}.}.",
"}.}.}.}.}.(.{.}.}.}.}.{.}.}.{.}.OX}.}.}.}.}.}.}.)..XG.oXXXXXF.XXI.}.}._.}.{.I.}.4XXX_.|. X}._._.}.}.}.}.}.}.}.}.}.{.}.}.}.}.}.}.",
"}.}.}.}.}.{.}.}.{.}.}.}.}.}.}.}.}.}.}.}.}.}.{.}.{.XXoXG.{..XF.@X{. X X_. XXX XI._.I. X XI._.=X_.}.}.}.}.}.{.}.}.}.}.}.}.}.}.}.{.",
"{.}.}.}.}.}.}.}.}.}.}.}.}.}.}.}.}.}.}.}.}.}.}.}.}.{.}.{.{.{.{.}.}.|.`.}.|.}.|.|.`.}.}.|.}.|.|.|.}.}.}.}.}.}.}.}.}.}.}.}.}.}.}.}.",
"}.}.}.}.}.}.}.}.}.}.}.}.}.}.{.}.}.}.}.}.}.}.}.}..X}.{.{.}.{.}.}.|.}._.|.`.|.`.`.}.`.|.`.`.|.{.{.}.{.}.}.}.}.}.}.}.}.}.}.{.}.}.}.",
"}.}.}.}.}.}.}.{.}.}.}.{.}.}.}.}.}.}.}.}.}.}.}.}.}.}.}.}.}.}.}.}.}.}.|.`.|.}.`. X}. X X}.}.`.}.'.}.}.}.}.{.}.}.}.}.{.}.}.}.}.}.}.",
"}.}.}.}.}.{.}.}.}.}.}.}.}.}.}.}.}.{.}.}.}.}.}.}.}.}.}.}.}.}.}.}.|.}.|.|.`.}.'.`.`.'.`.}.|.|.{.{.}.}.}.}.}.}.{.}.}.}.}.}.}.}.{.}.",
"}.}.}.OX}.}.}.}.}.}.}.}.}.{.}.}.}.}.}.}.}.}.}.}.}.}.}.}.}.`.}.}.}.}.|.|.'.'.'.'.]. X'.'.}.}.{.}.}.}.}.}.}.}.}.}.}.}.}.}.}.}.}.}.",
"}.}.{.{.}.}.}.}.{.}.}.}.}.}.}.}.}.{.}.}.}.}.}.}.}.}.`.OX}.}.}.}.}._.|.}.}.}.'.}.}.`.}.}.}. X{.{.{.}.}.}.}.}.}.}.}.}.}.}.}.}.{.}.",
"{.}.{.{.}.{.}.}.}.}.}.}.}.}.}.}.}.}.}.}.{.}.}.}.}.}.}.}.}.'.}.`.|.}.}.'.}.`.`.].`.'.`. X|.}.}..X}.}.}.}.}.}.}.}.(.{.}.{.}.}.}.}.",
"}.}.}.}.}.}.}.}.}.}.}.}.{.}.}.}.}.}.}.}.}.}.}.}.].}.`.}.`.}.`.}.}.|.}. X}.}.]. X'.'.'.`.|.}.}.}.{.{.}.}.{.}.}.}.}.{.}.}.}.}.}.}."
};
