/* XPM */
static char *preview1745159998[] = {
/* columns rows colors chars-per-pixel */
"64 64 51 1 ",
"  c #15090D",
". c #150A10",
"X c #1B0E14",
"o c #1C0F18",
"O c #1D1017",
"+ c #1E121A",
"@ c #22151D",
"# c #25181F",
"$ c #291A1F",
"% c #231720",
"& c #251A23",
"* c #291D26",
"= c #2B1F29",
"- c #2C2027",
"; c #2D212A",
": c #31242E",
"> c #372B2F",
", c #332631",
"< c #352933",
"1 c #392C36",
"2 c #3B2F39",
"3 c #3C3137",
"4 c #3D323B",
"5 c #41353E",
"6 c #44393F",
"7 c #3F3540",
"8 c #423640",
"9 c #453A45",
"0 c #493D46",
"q c #473C48",
"w c #493E49",
"e c #4C424C",
"r c #51454E",
"t c #4E4351",
"y c #514652",
"u c #554955",
"i c #584C56",
"p c #564B59",
"a c #594D5A",
"s c #5C515C",
"d c #61545D",
"f c #5E5360",
"g c #625662",
"h c #655A64",
"j c #695D66",
"k c #675D68",
"l c #6A5E6A",
"z c #6D616B",
"x c #72656F",
"c c #726671",
"v c #756A74",
/* pixels */
"&&+;1><<1>,,--;;===:==;;;;;;;;=;:$$=$***---&#-euuuuuyyupae&;;;;%",
"*%<a99e9ee9a3-;&%==%=;;:$**==*=:$8dsw0wweq469+3ee7e799qte9+-;;;&",
"&+4e79qq79ey9&&&%=%qzgfwwwwggh5*=wiwwwiapyequ+3e7qe7e9eyy7+&&&;;",
"#+;eqqq7etaf4&&&==oqwwwq0wwpwa8*=8aaspaaay4eeX:et9e749eee3+&&&%%",
"&+-e7eeepppa3+&===o<wwwwwwwwwg8$=9apppppsywur@&=:&&&+&--=*%===&&",
"&++37e7eee7t,+&===%1afwwfswwps8%=9apssaaiiae6@-:---:><#+&*==&&&;",
"-+,:;7e77q7q**====%2afwaawwwww5$=*,,,:8,-;=@X@re9qeeey6X=;==%&&&",
"&+1e2-4eqee7+**==*%:8q815558q0*%===%oo:%@@@@>$497q997te+=:&*&&=:",
"&+-7q7&,344:+%--==$o%%o%%%$$**$$==,1&;,&&&&:>@8e9eqqqu7+;====;;;",
"&+++&&+++%%++&&;==$$=;;;==;;*:::==;:*;**&=;&:*4aqq9qyy3&:=:=;;=*",
"&&&&&*&&&&&-;;;;;===;;;;==;;;*=:<:;:$@O=<,,*:-<spprtys7%**====&&",
"&&&&&&&%%+&&&&;&====:;;;%$;;;;;**;:*X @;***;<-:upspsps<+;***&%%%",
"&&&&&%&&&&&&,:<<<:;::;===;===*&;*==*o X;*&&-<*#<33qeq7;+=%%%&&%%",
"&&&&%&&&%&+4teuuywwar:*;;;=0wuw;;<<<$%*;,;;-;;#+++&&&%+&&&&%&%%%",
"&&&&*&&==&%1ye77wquwyw===;=wssi;<,;=<,,&-&,<<:;&&&-&+%+%&&%%&&%&",
"&&&&=&%=;;&4zaupwwdgdw*;===0ddw;:;=:,=,:&;*;e443:>33,;&&&&&&&&&%",
"&&&&:&&;&;&tkpapppkfft&:*&*=28,&;;;,:;;,=%*1u588949643++&&+&&&&@",
"&&&&&&&&&&%:utqqqreysq&-*&&*==*;;;:1:,:;:===;;&*-<,>:;,;-&&&&&+@",
"&&&&&=&&&%%-71<,341<>-++o+@%*&*;%@$,%%%+,,**%*:=-+uvghgfpyuyppt&",
"7qtt<;;;%&%;;%&=&<447997515955:*ww0wsaup2***%;&&-+eyuteqe99euyu4",
"qfpp<;;&%%%:<=&&:zpafsspppasss61vpadsaug9%*==&&=-&9sappppttpspu3",
",qpp;&&&&%&,,=&&;uppppupppppii85dwwupy9w<===;%&=;-7yaapuayuaqee3",
"&<77&:;&%*%,:&&*&uapppaapappua0;awuapppu,;,=;==;;&7uap9eeeetepu,",
"=&&==,,=&&%<;=;;+esppppppapaui8=awpaupau;=;;;;;;;-47uuqq9tyupuy:",
":;;;;=,,=&%1;*;*;44ruuqqpapaps5%yaapppaw;=;;*##%-+#;-:*-:1<4777;",
"=;===;=1;=;1,;**3a9:5yrwaaypas:@wsypapww;-;*5di0464ee6e-&&-&&;=;",
"==;;=;=:4;=;;:;:-0ie*<15095581&%,<,2www0&;;&udsiaeussszu&:::*==;",
"&&&&=;;;,;+&&*<;-#**==:=X@**%@@*=:=*%;=*&;;&9uuaauyuuup4&&+-++=&",
"777q7-&;;;O .&-;;;&*redr,jiuy9wuagwsw@;=&=;&9spsuptyaee:$ue0q432",
"kkkkvu;,,;O X*::,:;*wui95syiyaswww0ai%;;&&;*0suisaaap74;3jsgpupu",
"tttteq%&*;;&*;-:,:1:5ry5;iiaupppaspaw%;;*=;*9reeeee4444*&68q8euu",
"qqqq77&-;<,,:<-**:*&@&:@;iiappasppas5o*;**:*=;-*#&&#+#&#*rqqqwwu",
"t9qqpq*,<;*<=;1=;==;%*=;=wfwwwwpwwpf<o,;==:======;=%&%&=,qqq9999",
"qtttq7,,*&=<;&=,;=*=*=;;*wpwwpap0pps1%&o@%%**$%$$%%%+%==&99qqqqq",
"19qq71,=&==<;,*=,=*==;=;%1wwwpwawwww: 0jllhgllggaw80w====279w48<",
"++%&=&&&%=,,===%=,=;;===$$==:,=<8185@,xwwpppafffaww0w,==o&%%&=:@",
"&%%=**=;=&=7%*==$=:=*====$**=*%%%%$%$<iwypppppppwwqq8=%=%=--=1**",
"&&&=&*=;=+,8<7,:=:<:*====;;;;=%%*;;:*<aaaapppaapwwwwq=*=%-&&:;&=",
"&%*%&&&==%wafafwwwwq=*====;;===%&=;;$:dpaapaappawwwwq===%%%-,%&%",
"&&%&%%%&%&9wppwwpwwqw$===;=;===%&==;=:apwppapppafwwww=%=&=%;;%&*",
";-&&&&&==%8wwwwfapww8*==,;=;;==$;;;;*;pdpwfaaaaapftqt===&:;&=&;;",
"==;==;====7qwpwpappp7%:;=;;;;;==;;:;==wwaaaaawapttet7+,,&;7&=&&*",
";;===&====8waqwpwafw2&,;=;=====%$&$%;@&;;1229821;-&&-+;:,1;;,&&&",
"=*=*&+&&=&=2,:7<2887=%**$%*$*=;gaiiwwpwwwww:$:;;-*&-&;-;<=;;;&&&",
"7tqtptq%*%o*w8188w8q89q88888,%1hsgffaggglllc,;*=:,,,<;&+&=;,=:&&",
"ttuuppq%%*@hhwwwwlwgpfgghghgl8$yswppppppawwp,===&&;=&:+.%==;:,;=",
"7wtppu7+*%$g8wwwwawpwpwpppyyy0$yaappppapaaap==;=;;;&:;&&;&&&&&%%",
"29qppp7%=*;wwwpaaaaappapaaaai8*yaapppappaaaw==;:;=;,=&:=&,=&=%%&",
",epai0:**=&dvlkkggcffppwppapi8$wupisauuuaairu69877q63,--&-,-&&&%",
"&47q85;***&idgsyalgghpwpppaaiw$2565651<29qw5315<77<37<<&%%&-&&&%",
"%%%&**%*===wupaywfapppappappi8ooXXXXo@@O+o@@yiuppeqtutrqqqq:&&%&",
"&==;*;:;==*wpaapwswappaapptww11dr635erisdh>:duapuee9999999q3-&+&",
"=;==;=;=;**0upaapiwaapuupwwwa1darueeupaawi6@eyupystqqqq9qqq,+:&&",
"&&&&==*=;;&5weetw8088888qq008=wwuutwputt0r5Xqeq9qqq9qqqqqqq,+&&+",
"<1,<<<,,;%*-=;;;=*%*%$&%%*@o@owdpptwuwuuwu6X7putq9ee99qqq9q:+<<;",
"fhkklllcxu&;**=====$$**&%%o@$$5wttpautqyyi1$14yerypyqqqq99q&:ftu",
"wfppfwwpig=;:;:=;;==;;;;-,333--7qwtpye9qww*&w<;4teuuqqeqqq6@-676",
"wwwfaafaaw======;=;====&4kpsse&eq99qq9qqw0*@9r7*<7qe977777>+&uu6",
"ppwwaappaw===:====;;==&&,u77q<+qeqqqeqqq9w&X$-;$@----&*&&&++:uuu",
"pfwwpfsga9*=;===;==:=%=%*eeee3o<447qeye78w&O#+&*&&&&&&&-&&-->yus",
"pww88qwww8*;==;;==:==&&&*50q7:.&&-;;<44<<<&&--&-&&+&+&+&;&&&&66e",
"=**%%=,,1==;;::=====&%&**&&&&%++++++&&#+&&%=-+3e73<<,,<,,&%&&&&&",
"**%&@&%%*===;=======&=====*&&;&;;&=;;=*;==;;--fssuupssppe&&&--@+",
"=;==*=====:;;==::=::==:=:=:;;;::;:;;;;;;==;;-;yuyypppuytte-*;;--"
};
